<svg id="Logo_CSI" data-name="Logo CSI" xmlns="http://www.w3.org/2000/svg" width="42.182" height="37.858" viewBox="0 0 42.182 37.858">
  <g id="Raggruppa_6449" data-name="Raggruppa 6449">
    <path id="Tracciato_59463" data-name="Tracciato 59463" d="M27.744,48.315c-1.779,0-3.392-.545-3.752-1.3a1.031,1.031,0,0,1,.376-1.425c.251-.21,4.495-2.794,6.173-3.806.423-.254.651-.517.658-.761a.782.782,0,0,0-.338-.548c-2.831-1.7-9.512-6.036-10.223-9.49-.633-3.073,7.624-8.35,14.887-12.6.523-.3.952-.558,1.262-.745h0a6.15,6.15,0,0,1,3.126-1,4.645,4.645,0,0,1,4.26,3.48,3.7,3.7,0,0,1-1.156,4.091c-.238.222-1.738,1.347-3.477,2.647-2.067,1.547-4.642,3.47-4.908,3.759-.238.257-.385.42-.379.551s.157.319.46.583c.244.216.532.464.849.733a44.167,44.167,0,0,1,5.572,5.359,3,3,0,0,1,.6,1.594,2.38,2.38,0,0,1-.3,1.275c-1.6,2.835-9,6.44-11.141,7.2A7.731,7.731,0,0,1,27.744,48.315ZM37.009,18c-.313.191-.745.445-1.269.749C31.543,21.206,20.4,27.731,21.054,30.9c.677,3.289,7.241,7.539,10.032,9.215a1.2,1.2,0,0,1,.536.918c-.009.4-.3.78-.861,1.115-2.155,1.3-5.91,3.6-6.117,3.768-.457.388-.435.579-.269.918.4.833,3.464,1.491,5.776.67,2.026-.72,9.39-4.31,10.912-7a1.927,1.927,0,0,0,.244-1.062h0A2.585,2.585,0,0,0,40.8,38.1a43.689,43.689,0,0,0-5.513-5.3l-.855-.736c-.413-.36-.589-.614-.6-.88-.019-.316.207-.558.492-.861s2.23-1.763,4.964-3.812c1.654-1.237,3.22-2.409,3.442-2.615a3.313,3.313,0,0,0,1.027-3.7,4.25,4.25,0,0,0-3.843-3.138,5.722,5.722,0,0,0-2.9.937ZM21.693,44.14a8.55,8.55,0,0,1-4.507-1.566C13.746,40.45,6.449,34.859,5.152,31.555a4.971,4.971,0,0,1,.182-3.878l.016-.041c1.068-2.907,16.453-17.18,26.1-17.18h.006a7.029,7.029,0,0,1,3.608.893c1.218.711,1.851,1.51,1.876,2.377.041,1.3-1.312,2.312-1.726,2.59-.063.041-.238.141-.664.382-11,6.22-15.971,10.183-18.2,12.413a2.03,2.03,0,0,0-.777,1.356,1.9,1.9,0,0,0,.73,1.262c.789.761,4.579,3.824,6.844,5.654.974.786,1.679,1.356,1.807,1.469.532.473,1.707,1.51,1.528,2.684-.116.764-.777,1.422-1.967,1.958A6.794,6.794,0,0,1,21.693,44.14Zm9.757-33.257c-9.5,0-24.65,14.041-25.7,16.9l-.016.041A4.6,4.6,0,0,0,5.55,31.4c1.162,2.963,7.749,8.275,11.858,10.812,2.327,1.431,4.3,2.083,6.928.893,1.052-.473,1.632-1.021,1.723-1.632.144-.946-.908-1.876-1.359-2.274-.153-.138-.89-.733-1.823-1.485-2.271-1.835-6.07-4.9-6.872-5.682a2.261,2.261,0,0,1-.861-1.563,2.391,2.391,0,0,1,.9-1.66c2.249-2.249,7.251-6.239,18.292-12.482.36-.2.579-.329.63-.36.376-.254,1.582-1.146,1.547-2.227-.022-.714-.583-1.394-1.666-2.026a6.613,6.613,0,0,0-3.4-.833ZM44.372,37.252a1.806,1.806,0,0,1-.786-.194c-2.794-1.35-3.618-3.189-3.859-4.166a5.309,5.309,0,0,1,.937-4.6,3.862,3.862,0,0,1,2.506-1.554,2.213,2.213,0,0,1,1.892,1.388l.37.661c1.178,2.111,1.889,3.386,1.45,5.337a4.443,4.443,0,0,1-1.823,2.969A1.571,1.571,0,0,1,44.372,37.252Zm-1.2-10.089c-1.112,0-2.161,1.375-2.171,1.391l-.009.009a4.966,4.966,0,0,0-.849,4.225c.222.905.993,2.612,3.63,3.887a1.206,1.206,0,0,0,1.1.034,4.115,4.115,0,0,0,1.594-2.681c.4-1.792-.241-2.944-1.409-5.036l-.37-.661C44.263,27.555,43.752,27.164,43.17,27.164Z" transform="translate(-4.83 -10.457)" fill="#fff"/>
  </g>
  <g id="Raggruppa_6450" data-name="Raggruppa 6450" transform="translate(10.629 0.213)">
    <path id="Tracciato_59464" data-name="Tracciato 59464" d="M16.465,22.931C21.9,19.264,27.574,16.185,27.847,16c.241-.16,3.655-2.405-.128-4.614a6.819,6.819,0,0,0-3.5-.861h0c-4.7,0-10.85,3.483-15.99,7.345l.047.025c2.81,1.485,5.45,3.358,8.194,5.036" transform="translate(-8.224 -10.525)" fill="#fff"/>
  </g>
  <g id="Raggruppa_6451" data-name="Raggruppa 6451" transform="translate(0.215 17.668)">
    <path id="Tracciato_59465" data-name="Tracciato 59465" d="M5.25,16.1a4.494,4.494,0,0,0-.044,3.351c1.222,3.12,8.156,8.579,11.943,10.915,2.177,1.341,4.288,2.192,7.129.908,2.468-1.112,2.014-2.462,1.278-3.389A43.711,43.711,0,0,1,18.2,24.461C13.8,21.93,9.892,18.137,5.25,16.1" transform="translate(-4.899 -16.098)" fill="#fff"/>
  </g>
  <g id="Raggruppa_6452" data-name="Raggruppa 6452" transform="translate(21.369 6.393)">
    <path id="Tracciato_59466" data-name="Tracciato 59466" d="M21.692,22.392c2.55-.821,4.551-2.431,7.038-3.135a3.5,3.5,0,0,0,.661-3.452A4.461,4.461,0,0,0,25.338,12.5a5.864,5.864,0,0,0-3.016.971c-1.648,1-6.659,3.793-10.656,6.718a26.773,26.773,0,0,0,4.664,1.989,8.642,8.642,0,0,0,5.362.216" transform="translate(-11.666 -12.498)" fill="#fff"/>
  </g>
  <g id="Raggruppa_6453" data-name="Raggruppa 6453" transform="translate(19.187 29.771)">
    <path id="Tracciato_59467" data-name="Tracciato 59467" d="M18.266,21.018a1.63,1.63,0,0,1-.7.683c-2.017,1.212-5.932,3.608-6.145,3.787-.514.438-.539.73-.323,1.171.473.99,3.658,1.622,6.039.78,2.07-.736,9.465-4.338,11.025-7.1a1.843,1.843,0,0,0,.166-.376,22.529,22.529,0,0,1-6.687,1.247,22.066,22.066,0,0,1-3.373-.191" transform="translate(-10.968 -19.962)" fill="#fff"/>
  </g>
  <g id="Raggruppa_6454" data-name="Raggruppa 6454" transform="translate(34.879 16.494)">
    <path id="Tracciato_59468" data-name="Tracciato 59468" d="M19.385,15.723c-1.231,0-2.34,1.475-2.34,1.475a5.125,5.125,0,0,0-.9,4.416c.175.708.849,2.625,3.743,4.025,1.635.789,2.665-1.316,3-2.791.46-2.061-.4-3.32-1.8-5.848-.526-.955-1.131-1.278-1.707-1.278" transform="translate(-15.986 -15.723)" fill="#fff"/>
  </g>
</svg>
